<svg width="19" height="23" fill="none" xmlns="http://www.w3.org/2000/svg"><path d="M18.656 16.7c-.348 1.117-.897 2.233-1.647 3.35-1.152 1.75-2.3 2.624-3.442 2.624-.438 0-1.063-.143-1.875-.428-.768-.286-1.442-.429-2.022-.429-.545 0-1.179.147-1.902.442-.723.303-1.313.455-1.768.455-1.357 0-2.7-1.156-4.031-3.468C.656 16.916 0 14.67 0 12.508 0 10.473.504 8.804 1.513 7.5c1.01-1.286 2.277-1.929 3.804-1.929.643 0 1.433.134 2.37.402.93.268 1.545.402 1.849.402.402 0 1.04-.152 1.915-.455.91-.304 1.683-.456 2.317-.456 1.062 0 2.013.29 2.852.87.465.322.93.769 1.393 1.34-.705.598-1.214 1.125-1.526 1.58a4.77 4.77 0 00-.87 2.773 5.1 5.1 0 00.923 2.986c.616.884 1.322 1.447 2.116 1.688zM13.621.992c0 .545-.13 1.152-.389 1.821a5.495 5.495 0 01-1.245 1.849c-.482.482-.965.803-1.447.964-.33.098-.794.174-1.393.228.027-1.33.375-2.478 1.045-3.442.66-.956 1.777-1.616 3.348-1.982a.903.903 0 01.027.147c.018.071.031.12.04.147v.134a.834.834 0 01.014.134z" fill="#fff"/></svg>