<svg width="21" height="21" fill="none" xmlns="http://www.w3.org/2000/svg"><path d="M10.286 8.955h9.71c.107.599.16 1.17.16 1.715 0 1.937-.406 3.67-1.218 5.196a8.799 8.799 0 01-3.483 3.563c-1.5.857-3.223 1.285-5.17 1.285-1.401 0-2.736-.272-4.004-.817A10.196 10.196 0 013 17.714a10.377 10.377 0 01-2.196-3.281A10.183 10.183 0 010 10.429c0-1.402.268-2.737.804-4.005A10.377 10.377 0 013 3.143c.92-.92 2.013-1.647 3.281-2.183a10.04 10.04 0 014.005-.817c2.678 0 4.977.897 6.897 2.692l-2.8 2.692c-1.097-1.063-2.463-1.594-4.097-1.594a6.18 6.18 0 00-3.201.87 6.417 6.417 0 00-2.317 2.371 6.401 6.401 0 00-.857 3.255c0 1.178.285 2.267.857 3.267a6.447 6.447 0 002.317 2.358c.982.58 2.049.87 3.2.87.777 0 1.492-.107 2.144-.321.651-.215 1.187-.483 1.607-.804.42-.321.785-.687 1.098-1.098.312-.41.54-.8.683-1.165a4.71 4.71 0 00.308-1.045h-5.84V8.955z" fill="#fff"/></svg>