<svg width="118" height="39" fill="none" xmlns="http://www.w3.org/2000/svg"><mask id="a" maskUnits="userSpaceOnUse" x="1" y="4" width="26" height="31"><path fill-rule="evenodd" clip-rule="evenodd" d="M2.076 11.334c.84-4.804 5.383-7.955 10.062-6.98 4.592.957 7.483 5.652 6.602 10.356l-.328 1.754c-.344 1.836.833 3.609 2.63 3.96 3.67.718 6.231 4.298 5.546 8.053-.687 3.757-4.239 6.221-7.91 5.486-3.666-.735-5.977-4.49-5.275-8.24.343-1.836-.834-3.609-2.63-3.96l-1.717-.336c-4.602-.9-7.804-5.378-6.98-10.093z" fill="#fff"/></mask><g mask="url(#a)"><path fill-rule="evenodd" clip-rule="evenodd" d="M.067 35.177h32.666v-31H.067v31z" fill="url(#paint0_linear)"/></g><mask id="b" maskUnits="userSpaceOnUse" x="0" y="24" width="10" height="11"><path fill-rule="evenodd" clip-rule="evenodd" d="M1.642 25.86c-1.844 1.883-1.844 4.937 0 6.82a4.648 4.648 0 006.674 0c1.842-1.883 1.842-4.937 0-6.82a4.648 4.648 0 00-6.674 0z" fill="#fff"/></mask><g mask="url(#b)"><path fill-rule="evenodd" clip-rule="evenodd" d="M1.642 25.86c-1.844 1.883-1.844 4.937 0 6.82a4.648 4.648 0 006.674 0c1.842-1.883 1.842-4.937 0-6.82a4.648 4.648 0 00-6.674 0z" fill="url(#paint1_linear)"/></g><path fill-rule="evenodd" clip-rule="evenodd" d="M82.13 25.09a.814.814 0 01-.57.21.841.841 0 01-.59-.21c-.153-.14-.23-.337-.23-.59V11.8c0-.253.077-.45.23-.59.153-.14.35-.21.59-.21.227 0 .417.07.57.21.153.14.23.337.23.59v12.7c0 .253-.077.45-.23.59zm-24.29-.37c-.707.413-1.52.62-2.44.62-.92 0-1.73-.207-2.43-.62-.7-.413-1.24-1.003-1.62-1.77-.38-.767-.57-1.657-.57-2.67s.19-1.903.57-2.67c.38-.767.92-1.357 1.62-1.77.7-.413 1.51-.62 2.43-.62.92 0 1.733.207 2.44.62a4.112 4.112 0 011.63 1.77c.38.767.57 1.657.57 2.67s-.19 1.903-.57 2.67a4.112 4.112 0 01-1.63 1.77zm-14.13 4.04a.722.722 0 01-.39.12.808.808 0 01-.53-.19.607.607 0 01-.23-.49.71.71 0 01.08-.32l1.4-3.02-3.96-8.56A.595.595 0 0140 16c0-.2.09-.373.27-.52a.914.914 0 01.59-.22.765.765 0 01.68.46l3.34 7.5 3.34-7.46c.147-.32.38-.48.7-.48.2 0 .38.067.54.2.16.133.24.3.24.5 0 .12-.027.227-.08.32L44 28.42a.765.765 0 01-.29.34zM55.4 24c-.96 0-1.697-.32-2.21-.96-.513-.64-.77-1.56-.77-2.76 0-1.187.26-2.103.78-2.75.52-.647 1.253-.97 2.2-.97.947 0 1.68.323 2.2.97.52.647.78 1.563.78 2.75 0 1.213-.257 2.137-.77 2.77s-1.25.95-2.21.95zm12.39.88c-.553.307-1.177.46-1.87.46-1.16 0-2.033-.323-2.62-.97-.587-.647-.88-1.603-.88-2.87v-5.44c0-.24.073-.433.22-.58.147-.147.347-.22.6-.22s.45.073.59.22c.14.147.21.34.21.58v5.4c0 .867.173 1.503.52 1.91.347.407.893.61 1.64.61.853 0 1.54-.277 2.06-.83.52-.553.78-1.283.78-2.19v-4.9c0-.24.073-.433.22-.58.147-.147.347-.22.6-.22s.45.073.59.22c.14.147.21.34.21.58v8.46c0 .227-.07.413-.21.56-.14.147-.337.22-.59.22-.24 0-.43-.07-.57-.21a.744.744 0 01-.21-.55v-1a3.17 3.17 0 01-1.29 1.34zm6.71.42c.24 0 .433-.067.58-.2.147-.133.22-.333.22-.6v-4.86c0-.747.217-1.397.65-1.95.433-.553 1.097-.87 1.99-.95l.6-.06c.293-.027.5-.103.62-.23s.18-.297.18-.51c0-.493-.28-.72-.84-.68l-.28.02c-.667.053-1.257.233-1.77.54-.513.307-.91.753-1.19 1.34v-1.12c0-.24-.073-.43-.22-.57a.753.753 0 00-.54-.21.85.85 0 00-.58.21c-.16.14-.24.337-.24.59v8.44c0 .253.077.45.23.59.153.14.35.21.59.21zm14.92.04c.92 0 1.733-.207 2.44-.62a4.112 4.112 0 001.63-1.77c.38-.767.57-1.657.57-2.67s-.19-1.903-.57-2.67a4.112 4.112 0 00-1.63-1.77c-.707-.413-1.52-.62-2.44-.62-.92 0-1.73.207-2.43.62-.7.413-1.24 1.003-1.62 1.77-.38.767-.57 1.657-.57 2.67s.19 1.903.57 2.67c.38.767.92 1.357 1.62 1.77.7.413 1.51.62 2.43.62zm-2.21-2.3c.513.64 1.25.96 2.21.96s1.697-.317 2.21-.95c.513-.633.77-1.557.77-2.77 0-1.187-.26-2.103-.78-2.75-.52-.647-1.253-.97-2.2-.97-.947 0-1.68.323-2.2.97-.52.647-.78 1.563-.78 2.75 0 1.2.257 2.12.77 2.76zm13.55 5.9c1.467 0 2.573-.37 3.32-1.11.747-.74 1.12-1.837 1.12-3.29v-8.48c0-.24-.073-.433-.22-.58-.147-.147-.347-.22-.6-.22s-.45.073-.59.22c-.14.147-.21.34-.21.58v1.08a3.197 3.197 0 00-1.3-1.42c-.573-.333-1.247-.5-2.02-.5-.853 0-1.61.2-2.27.6-.66.4-1.173.967-1.54 1.7s-.55 1.58-.55 2.54.183 1.807.55 2.54c.367.733.88 1.3 1.54 1.7.66.4 1.417.6 2.27.6.787 0 1.47-.167 2.05-.5a3.05 3.05 0 001.29-1.44v1.72c0 .96-.24 1.69-.72 2.19s-1.193.75-2.14.75c-.627 0-1.167-.073-1.62-.22a9.252 9.252 0 01-1.38-.58c-.347-.187-.587-.28-.72-.28-.16 0-.29.06-.39.18-.1.12-.15.273-.15.46 0 .347.24.653.72.92.947.56 2.133.84 3.56.84zm-2.41-6.31c.54.62 1.283.93 2.23.93.933 0 1.667-.31 2.2-.93.533-.62.8-1.477.8-2.57 0-1.08-.263-1.93-.79-2.55-.527-.62-1.263-.93-2.21-.93-.947 0-1.69.31-2.23.93-.54.62-.81 1.47-.81 2.55 0 1.093.27 1.95.81 2.57zm13.89 2.71c.92 0 1.733-.207 2.44-.62a4.11 4.11 0 001.63-1.77c.38-.767.57-1.657.57-2.67s-.19-1.903-.57-2.67a4.11 4.11 0 00-1.63-1.77c-.707-.413-1.52-.62-2.44-.62-.92 0-1.73.207-2.43.62-.7.413-1.24 1.003-1.62 1.77-.38.767-.57 1.657-.57 2.67s.19 1.903.57 2.67c.38.767.92 1.357 1.62 1.77.7.413 1.51.62 2.43.62zm-2.21-2.3c.513.64 1.25.96 2.21.96s1.697-.317 2.21-.95c.513-.633.77-1.557.77-2.77 0-1.187-.26-2.103-.78-2.75-.52-.647-1.253-.97-2.2-.97-.947 0-1.68.323-2.2.97-.52.647-.78 1.563-.78 2.75 0 1.2.257 2.12.77 2.76z" fill="#171C2D"/><defs><linearGradient id="paint0_linear" x1="-16.06" y1="19.742" x2="14.767" y2="52.227" gradientUnits="userSpaceOnUse"><stop stop-color="#192B74"/><stop offset="1" stop-color="#2946A1"/></linearGradient><linearGradient id="paint1_linear" x1="-4.4" y1="29.29" x2="5.203" y2="38.686" gradientUnits="userSpaceOnUse"><stop stop-color="#192B74"/><stop offset="1" stop-color="#2946A1"/></linearGradient></defs></svg>